<svg xmlns="http://www.w3.org/2000/svg" version="1.1" xmlns:xlink="http://www.w3.org/1999/xlink" xmlns:svgjs="http://svgjs.dev/svgjs" width="1500" height="1500" viewBox="0 0 1500 1500">
<rect width="1500" height="1500" fill="#fbcd08"></rect>
<g transform="matrix(0.6666666666666666,0,0,0.6666666666666666,250.00110085406993,187.66666666666674)">
<svg viewBox="0 0 320 360" data-background-color="#fbcd08" preserveAspectRatio="xMidYMid meet" height="1687" width="1500" xmlns="http://www.w3.org/2000/svg" xmlns:xlink="http://www.w3.org/1999/xlink">
<g id="tight-bounds" transform="matrix(1,0,0,1,0.00010353528136874957,0)">
<svg viewBox="0 0 320 360" height="360" width="320">
<g>
<svg></svg>
</g>
<g>
<svg viewBox="0 0 320 360" height="360" width="320">
<g>
<path d="M307.925 179.999l6.575-11.387c11.322-19.607 4.604-44.679-15.003-56.001l-11.387-6.575v-13.151c0-22.639-18.354-40.994-40.994-40.994h-13.151l-6.575-11.387c-11.322-19.607-36.393-26.325-56.001-15.003l-11.39 6.572-11.387-6.576c-19.607-11.318-44.679-4.6-56.001 15.007l-6.575 11.387h-13.151c-22.639 0-40.994 18.354-40.994 40.994v13.151l-11.387 6.575c-19.607 11.322-26.325 36.393-15.003 56.001l6.572 11.387-6.576 11.387c-11.318 19.607-4.6 44.679 15.007 56l11.387 6.576v13.15c0 22.639 18.354 40.994 40.994 40.994h13.151l6.575 11.387c11.322 19.607 36.393 26.325 56.001 15.003l11.387-6.571 11.387 6.575c19.607 11.322 44.679 4.604 56-15.003l6.576-11.387h13.15c22.639 0 40.994-18.354 40.994-40.994v-13.151l11.387-6.575c19.607-11.322 26.325-36.393 15.003-56.001zM297.702 115.716c8.655 4.996 14.842 13.062 17.428 22.713 2.586 9.65 1.261 19.734-3.735 28.384l-5.538 9.596-17.747-30.74v-35.494zM251.155 271.155l-57.791 33.365h-66.731l-57.791-33.365-33.365-57.791v-66.731l33.365-57.791 57.791-33.365h66.731l57.791 33.365 33.365 57.791v66.731zM284.517 220.539v31.351l-27.151 15.676zM247.566 277.366l-15.676 27.151h-31.351zM187.15 308.106l-27.151 15.676-27.151-15.676zM119.459 304.517h-31.352l-15.676-27.151zM62.632 267.566l-27.151-15.676v-31.351zM31.891 207.15l-15.675-27.151 15.675-27.151zM35.481 139.459v-31.352l27.151-15.676zM72.431 82.632l15.676-27.151h31.352zM132.848 51.891l27.151-15.675 27.151 15.675zM200.539 55.481h31.351l15.676 27.151zM257.366 92.431l27.151 15.676v31.352zM288.106 152.848l15.676 27.151-15.676 27.151zM247.112 55.481c9.992 0 19.384 3.889 26.452 10.956 7.063 7.063 10.956 16.46 10.957 26.452v11.079l-30.741-17.747-17.747-30.74zM173.18 28.606c8.655-4.996 18.735-6.322 28.385-3.735 9.65 2.586 17.716 8.777 22.712 17.428l5.538 9.596h-35.494l-30.741-17.747zM95.716 42.295c4.996-8.655 13.062-14.842 22.713-17.428 9.65-2.586 19.734-1.261 28.384 3.736l9.596 5.537-30.74 17.747h-35.494zM35.481 92.885c0-9.992 3.889-19.384 10.956-26.452 7.063-7.063 16.46-10.956 26.452-10.956h11.079l-17.747 30.74-30.74 17.747zM8.606 166.817c-4.996-8.655-6.322-18.735-3.735-28.385 2.586-9.65 8.777-17.716 17.428-22.712l9.596-5.538v35.495l-17.747 30.74zM22.295 244.281c-8.655-4.996-14.842-13.062-17.428-22.712-2.586-9.65-1.261-19.734 3.736-28.385l5.537-9.596 17.747 30.74v35.495zM72.885 304.517c-9.992 0-19.384-3.889-26.452-10.957-7.063-7.063-10.956-16.46-10.956-26.451v-11.08l30.74 17.747 17.747 30.741zM146.817 331.391c-8.655 4.996-18.735 6.322-28.385 3.735-9.65-2.586-17.716-8.777-22.712-17.428l-5.538-9.596h35.495l30.74 17.747zM224.281 317.702c-4.996 8.655-13.062 14.842-22.712 17.428-9.65 2.586-19.734 1.261-28.385-3.735l-9.596-5.538 30.74-17.747h35.495zM284.517 267.112c0 9.992-3.889 19.384-10.957 26.452-7.063 7.063-16.46 10.956-26.451 10.957h-11.08l17.747-30.741 30.741-17.747zM315.13 221.565c-2.586 9.65-8.777 17.716-17.428 22.712l-9.596 5.538v-35.494l17.747-30.741 5.538 9.596c4.996 8.658 6.326 18.739 3.739 28.389z" fill="#372e18" fill-rule="nonzero" stroke="none" stroke-width="1" stroke-linecap="butt" stroke-linejoin="miter" stroke-miterlimit="10" stroke-dasharray="" stroke-dashoffset="0" font-family="none" font-weight="none" font-size="none" text-anchor="none" style="mix-blend-mode: normal" data-fill-palette-color="tertiary">
</path>
</g>
<g transform="matrix(1,0,0,1,64,121.71239779580281)">
<svg viewBox="0 0 192 116.57520440839437" height="116.57520440839437" width="192">
<g>
<svg viewBox="0 0 192 116.57520440839437" height="116.57520440839437" width="192">
<g>
<svg viewBox="0 0 192 116.57520440839437" height="116.57520440839437" width="192">
<g>
<svg viewBox="0 0 192 116.57520440839437" height="116.57520440839437" width="192">
<g id="textblocktransform"><svg viewBox="0 0 192 116.57520440839437" height="116.57520440839437" width="192" id="textblock">
<g>
<svg viewBox="0 0 192 69.56190476190477" height="69.56190476190477" width="192">
<g transform="matrix(1,0,0,1,0,0)">
<svg width="192" viewBox="0 -29.5 125.99 45.65" height="69.56190476190477" data-palette-color="#372e18">
<path d="M1.5 0L0 0 0-29.5 1.5-29.5 1.5 0ZM4.5 0L3 0 3-29.5 4.5-29.5 4.5 0ZM10.5 0L6 0 6-29.5 10.5-29.5 10.5 0ZM21 0L16.5 0 16.5-29.5 21-29.5 21 0ZM24 0L22.5 0 22.5-29.5 24-29.5 24 0ZM11.8 16.15L11.8 16.15Q10.05 16.15 9 14.85L9 14.85 9.75 13.95 9.9 13.8 10 13.85Q10 14.05 10.05 14.2L10.05 14.2Q10.15 14.3 10.35 14.5L10.35 14.5Q11 15 11.75 15L11.75 15Q12.7 15 13.1 14.35L13.1 14.35Q13.55 13.7 13.55 12.1L13.55 12.1 13.55 5.45 11.3 5.45 11.3 4.35 16.6 4.35 16.6 5.45 14.8 5.45 14.8 12.05Q14.85 13.5 14.45 14.4L14.45 14.4Q14.05 15.3 13.35 15.75L13.35 15.75Q12.65 16.15 11.8 16.15ZM27 0L25.5 0 25.5-29.5 27-29.5 27 0ZM33 0L28.5 0 28.5-29.5 33-29.5 33 0ZM36 0L34.5 0 34.5-29.5 36-29.5 36 0ZM46.5 0L42 0 42-29.5 46.5-29.5 46.5 0ZM49.5 0L48 0 48-29.5 49.5-29.5 49.5 0ZM35.1 15.95L35.1 14.85 37.4 14.85 37.4 5.45 35.25 5.45 35.25 4.35 41 4.35 41 5.45 38.7 5.45 38.7 14.85 41.1 14.85 41.1 15.95 35.1 15.95ZM52.5 0L51 0 51-29.5 52.5-29.5 52.5 0ZM55.5 0L54 0 54-29.5 55.5-29.5 55.5 0ZM61.5 0L57 0 57-29.5 61.5-29.5 61.5 0ZM64.5 0L63 0 63-29.5 64.5-29.5 64.5 0ZM75 0L70.5 0 70.5-29.5 75-29.5 75 0ZM60.05 15.95L60.05 4.35 61.3 4.35 66.15 12.95 66.15 4.35 67.59 4.35 67.59 4.5Q67.45 4.6 67.45 4.75L67.45 4.75Q67.4 4.85 67.4 5.2L67.4 5.2 67.4 15.95 66.4 15.95 61.25 6.85 61.25 15.95 60.05 15.95ZM77.99 0L76.49 0 76.49-29.5 77.99-29.5 77.99 0ZM83.99 0L79.49 0 79.49-29.5 83.99-29.5 83.99 0ZM86.99 0L85.49 0 85.49-29.5 86.99-29.5 86.99 0ZM97.49 0L92.99 0 92.99-29.5 97.49-29.5 97.49 0ZM100.49 0L98.99 0 98.99-29.5 100.49-29.5 100.49 0ZM86.09 15.95L86.09 14.85 88.39 14.85 88.39 5.45 86.24 5.45 86.24 4.35 91.99 4.35 91.99 5.45 89.69 5.45 89.69 14.85 92.09 14.85 92.09 15.95 86.09 15.95ZM106.49 0L101.99 0 101.99-29.5 106.49-29.5 106.49 0ZM109.49 0L107.99 0 107.99-29.5 109.49-29.5 109.49 0ZM112.49 0L110.99 0 110.99-29.5 112.49-29.5 112.49 0ZM119.99 0L118.49 0 118.49-29.5 119.99-29.5 119.99 0ZM125.99 0L121.49 0 121.49-29.5 125.99-29.5 125.99 0ZM117.74 15.95L116.59 12.55 112.84 12.55 111.69 15.95 110.39 15.95 114.64 4.15 114.79 4.15 119.09 15.95 117.74 15.95ZM113.19 11.55L116.24 11.55 114.74 7.15 113.19 11.55Z" opacity="1" transform="matrix(1,0,0,1,0,0)" fill="#372e18" class="wordmark-text-0" data-fill-palette-color="primary" id="text-0">
</path>
</svg>
</g>
</svg>
</g>
<g transform="matrix(1,0,0,1,0,85.9838009904762)">
<svg viewBox="0 0 192 30.591403417918176" height="30.591403417918176" width="192">
<g transform="matrix(1,0,0,1,0,0)">
<svg width="192" viewBox="0.4 -36.15 289.63 46.15" height="30.591403417918176" data-palette-color="#372e18">
<path d="M0.4-34.45L28.4-34.45 28.4-27.3 25.25-26.9Q24.6-27.4 24-29L24-29 18-29 18-5.8Q20-5 20.75-4.15L20.75-4.15 20.25 0 8.55 0 8.05-4.15Q8.7-5 10.8-5.8L10.8-5.8 10.8-29 4.8-29Q4.2-27.4 3.55-26.9L3.55-26.9 0.4-27.3 0.4-34.45ZM29.5-31.65L30-35.5Q32.8-36.15 35.2-36.15 37.6-36.15 39.25-36L39.25-36 39.25-23.5Q40.45-24.3 42.45-24.85 44.45-25.4 46-25.4L46-25.4Q50.95-25.4 52.85-23 54.75-20.6 54.75-15.7L54.75-15.7 54.75-5.55Q56.7-4.8 57.5-3.85L57.5-3.85 57 0 45.5 0 45-3.85Q45.7-4.8 47.75-5.55L47.75-5.55 47.75-15.45Q47.75-18.15 46.87-19.07 46-20 43.7-20 41.4-20 39.25-18.4L39.25-18.4 39.25-5.55Q41.2-4.8 42-3.85L42-3.85 41.5 0 30 0 29.5-3.85Q30.2-4.8 32.25-5.55L32.25-5.55 32.25-29.95Q30.5-30.55 29.5-31.65L29.5-31.65ZM71.25 0.4L71.25 0.4Q65.25 0.4 62.22-2.8 59.2-6 59.2-12.1L59.2-12.1Q59.2-15.8 60.25-18.48 61.3-21.15 63.1-22.6L63.1-22.6Q66.6-25.4 71.25-25.4 75.9-25.4 78.37-23.03 80.85-20.65 80.85-14.5L80.85-14.5Q80.85-10.9 77.3-10.9L77.3-10.9 66.45-10.9Q66.65-7.75 68.07-6.45 69.5-5.15 72.6-5.15L72.6-5.15Q74.3-5.15 75.85-5.55 77.4-5.95 78.1-6.35L78.1-6.35 78.8-6.75 80.3-2.75Q80-2.4 79.42-1.88 78.85-1.35 76.52-0.48 74.2 0.4 71.25 0.4ZM66.5-15.05L74.4-15.35Q74.5-16.05 74.5-17.05 74.5-18.05 73.7-19.18 72.9-20.3 70.92-20.3 68.95-20.3 67.9-19.1 66.85-17.9 66.5-15.05L66.5-15.05ZM110.34-29.05L110.34-29.05Q108.64-29.5 106.79-29.5 104.94-29.5 103.82-28.58 102.69-27.65 102.69-25.98 102.69-24.3 103.54-23.35 104.39-22.4 106.89-21.7L106.89-21.7 111.34-20.4Q114.94-19.35 117.07-17.13 119.19-14.9 119.19-10.6L119.19-10.6Q119.19-5.5 115.52-2.55 111.84 0.4 106.39 0.4L106.39 0.4Q103.39 0.4 100.22-0.38 97.04-1.15 94.94-2.55L94.94-2.55Q94.94-2.85 94.94-3.7 94.94-4.55 95.29-6.6 95.64-8.65 96.29-9.95L96.29-9.95 101.04-9.95Q101.84-8.4 101.99-5.8L101.99-5.8Q103.74-5.05 106.07-5.05 108.39-5.05 109.89-6.15 111.39-7.25 111.39-9.3L111.39-9.3Q111.39-10.25 111.24-10.88 111.09-11.5 110.32-12.23 109.54-12.95 108.09-13.4L108.09-13.4 102.94-14.9Q95.09-17.15 95.09-24.9L95.09-24.9Q95.09-29.45 98.39-32.18 101.69-34.9 107.02-34.9 112.34-34.9 117.44-32.5L117.44-32.5Q117.44-32.2 117.44-31.35 117.44-30.5 117.09-28.45 116.74-26.4 116.09-25.1L116.09-25.1 111.34-25.1Q110.49-26.3 110.34-29.05ZM139.99-2.1L139.99-2.1Q136.54 0.4 131.86 0.4 127.19 0.4 125.34-1.55 123.49-3.5 123.49-7.9L123.49-7.9 123.49-19.45Q121.74-20.05 120.74-21.15L120.74-21.15 121.24-25Q124.04-25.65 126.44-25.65 128.84-25.65 130.49-25.5L130.49-25.5 130.49-9.55Q130.49-6.85 131.31-5.98 132.14-5.1 134.59-5.1 137.04-5.1 139.14-6.7L139.14-6.7 139.14-19.45Q137.39-20.05 136.39-21.15L136.39-21.15 136.89-25Q139.69-25.65 142.09-25.65 144.49-25.65 146.14-25.5L146.14-25.5 146.14-6Q147.89-5.65 148.89-5.15L148.89-5.15 148.89-1.2Q145.89 0.4 141.34 0.4L141.34 0.4Q140.09-0.5 139.99-2.1ZM150.39-21.15L150.89-25Q153.64-25.6 155.84-25.6 158.04-25.6 159.49-25.5L159.49-25.5 159.49-23.05Q162.84-25.4 166.64-25.4L166.64-25.4Q171.64-25.4 173.89-22.55 176.14-19.7 176.14-13.05L176.14-13.05Q176.14-9.5 175.09-6.8 174.04-4.1 172.24-2.6L172.24-2.6Q168.79 0.4 164.04 0.4L164.04 0.4Q161.99 0.4 160.14 0L160.14 0 160.14 4.3Q163.09 5.1 163.94 6.15L163.94 6.15 163.44 10 150.89 10 150.39 6.15Q151.04 5.25 153.14 4.45L153.14 4.45 153.14-19.45Q151.39-20.05 150.39-21.15L150.39-21.15ZM163.54-4.7L163.54-4.7Q166.04-4.7 167.49-6.93 168.94-9.15 168.94-13.08 168.94-17 168.14-18.45 167.34-19.9 165.24-19.9L165.24-19.9Q162.04-19.9 160.14-18.4L160.14-18.4 160.14-5.1Q161.69-4.7 163.54-4.7ZM193.73-18.85L193.73-18.85Q189.93-18.85 188.48-17.4L188.48-17.4 188.48-5.95Q192.53-5.2 194.03-3.85L194.03-3.85 193.53 0 179.23 0 178.73-3.85Q179.43-4.8 181.48-5.55L181.48-5.55 181.48-19.45Q179.73-20.05 178.73-21.15L178.73-21.15 179.23-25Q181.98-25.6 184.18-25.6 186.38-25.6 187.83-25.5L187.83-25.5 187.83-22.35Q188.98-23.7 190.78-24.58 192.58-25.45 194.06-25.45 195.53-25.45 196.08-25.2L196.08-25.2 195.93-18.7Q194.93-18.85 193.73-18.85ZM210.13 0.4L210.13 0.4Q204.13 0.4 201.11-2.8 198.08-6 198.08-12.1L198.08-12.1Q198.08-15.8 199.13-18.48 200.18-21.15 201.98-22.6L201.98-22.6Q205.48-25.4 210.13-25.4 214.78-25.4 217.26-23.03 219.73-20.65 219.73-14.5L219.73-14.5Q219.73-10.9 216.18-10.9L216.18-10.9 205.33-10.9Q205.53-7.75 206.96-6.45 208.38-5.15 211.48-5.15L211.48-5.15Q213.18-5.15 214.73-5.55 216.28-5.95 216.98-6.35L216.98-6.35 217.68-6.75 219.18-2.75Q218.88-2.4 218.31-1.88 217.73-1.35 215.41-0.48 213.08 0.4 210.13 0.4ZM205.38-15.05L213.28-15.35Q213.38-16.05 213.38-17.05 213.38-18.05 212.58-19.18 211.78-20.3 209.81-20.3 207.83-20.3 206.78-19.1 205.73-17.9 205.38-15.05L205.38-15.05ZM222.28-21.15L222.78-25Q225.53-25.6 227.73-25.6 229.93-25.6 231.38-25.5L231.38-25.5 231.38-23Q232.58-24 234.38-24.7 236.18-25.4 237.63-25.4L237.63-25.4Q243.33-25.4 245.23-22.55L245.23-22.55Q246.48-23.75 248.53-24.58 250.58-25.4 252.33-25.4L252.33-25.4Q257.83-25.4 259.73-22.93 261.63-20.45 261.63-13.65L261.63-13.65 261.63-5.55Q263.58-4.8 264.38-3.85L264.38-3.85 263.88 0 252.38 0 251.88-3.85Q252.58-4.8 254.63-5.55L254.63-5.55 254.63-15.45Q254.63-18.2 253.88-19.1 253.13-20 250.9-20 248.68-20 246.68-18.35L246.68-18.35Q246.93-16.65 246.93-13.65L246.93-13.65 246.93-5.55Q248.88-4.8 249.68-3.85L249.68-3.85 249.18 0 237.68 0 237.18-3.85Q237.88-4.8 239.93-5.55L239.93-5.55 239.93-15.45Q239.93-18.2 239.18-19.1 238.43-20 236.23-20 234.03-20 232.03-18.4L232.03-18.4 232.03-5.55Q233.98-4.8 234.78-3.85L234.78-3.85 234.28 0 222.78 0 222.28-3.85Q222.98-4.8 225.03-5.55L225.03-5.55 225.03-19.45Q223.28-20.05 222.28-21.15L222.28-21.15ZM277.65 0.4Q271.73 0.4 268.88-2.75 266.03-5.9 266.03-12.28 266.03-18.65 269.2-22.03 272.38-25.4 278.33-25.4 284.28-25.4 287.15-22.4 290.03-19.4 290.03-13.03 290.03-6.65 286.8-3.13 283.58 0.4 277.65 0.4ZM273.23-12.7L273.23-12.7Q273.23-4.7 278.03-4.7L278.03-4.7Q280.48-4.7 281.65-6.53 282.83-8.35 282.83-12.5L282.83-12.5Q282.83-20.3 277.93-20.3L277.93-20.3Q275.53-20.3 274.38-18.57 273.23-16.85 273.23-12.7Z" opacity="1" transform="matrix(1,0,0,1,0,0)" fill="#372e18" class="slogan-text-1" data-fill-palette-color="secondary" id="text-1">
</path>
</svg>
</g>
</svg>
</g>
</svg>
</g>
</svg>
</g>
</svg>
</g>
</svg>
</g>
</svg>
</g>
</svg>
</g>
<defs></defs>
</svg>
<rect width="320" height="360" fill="none" stroke="none" visibility="hidden"></rect>
</g>
</svg>
</g>
</svg>